<svg width="333" height="333" viewBox="0 0 333 333" fill="none" xmlns="http://www.w3.org/2000/svg">
<path d="M333 254.678H0V254.845H333V254.678Z" fill="#EBEBEB"/>
<path d="M299.633 265.394H277.575V265.561H299.633V265.394Z" fill="#EBEBEB"/>
<path d="M220.593 267.206H214.805V267.372H220.593V267.206Z" fill="#EBEBEB"/>
<path d="M276.909 259.214H264.129V259.38H276.909V259.214Z" fill="#EBEBEB"/>
<path d="M63.7029 260.333H34.9384V260.499H63.7029V260.333Z" fill="#EBEBEB"/>
<path d="M73.8527 260.333H69.637V260.499H73.8527V260.333Z" fill="#EBEBEB"/>
<path d="M149.95 263.143H87.559V263.31H149.95V263.143Z" fill="#EBEBEB"/>
<path d="M157.842 224.975H29.244C28.2366 224.973 27.2711 224.572 26.5593 223.859C25.8476 223.146 25.4478 222.179 25.4478 221.172V40.3996C25.4566 39.3979 25.8602 38.4402 26.571 37.7344C27.2818 37.0286 28.2424 36.6317 29.244 36.63H157.842C158.851 36.63 159.818 37.0307 160.531 37.7438C161.244 38.457 161.645 39.4243 161.645 40.4329V221.172C161.645 222.181 161.244 223.148 160.531 223.861C159.818 224.574 158.851 224.975 157.842 224.975ZM29.244 36.7632C28.2808 36.765 27.3576 37.1489 26.6771 37.8306C25.9965 38.5124 25.6143 39.4363 25.6143 40.3996V221.172C25.6143 222.135 25.9965 223.059 26.6771 223.741C27.3576 224.423 28.2808 224.807 29.244 224.808H157.842C158.806 224.807 159.73 224.423 160.411 223.741C161.093 223.06 161.477 222.136 161.478 221.172V40.3996C161.477 39.4357 161.093 38.5118 160.411 37.8302C159.73 37.1486 158.806 36.765 157.842 36.7632H29.244Z" fill="#EBEBEB"/>
<path d="M301.904 224.975H173.3C172.292 224.973 171.326 224.572 170.613 223.859C169.9 223.146 169.499 222.18 169.497 221.172V40.3996C169.508 39.3973 169.913 38.4396 170.624 37.734C171.336 37.0283 172.298 36.6317 173.3 36.63H301.904C302.905 36.6335 303.864 37.0311 304.573 37.7367C305.283 38.4423 305.685 39.3991 305.694 40.3996V221.172C305.694 222.178 305.295 223.143 304.585 223.856C303.875 224.569 302.911 224.971 301.904 224.975ZM173.3 36.7632C172.336 36.765 171.412 37.1486 170.731 37.8302C170.049 38.5118 169.665 39.4357 169.664 40.3996V221.172C169.665 222.136 170.049 223.06 170.731 223.741C171.412 224.423 172.336 224.807 173.3 224.808H301.904C302.868 224.807 303.792 224.423 304.474 223.741C305.155 223.06 305.539 222.136 305.541 221.172V40.3996C305.539 39.4357 305.155 38.5118 304.474 37.8302C303.792 37.1486 302.868 36.765 301.904 36.7632H173.3Z" fill="#EBEBEB"/>
<path d="M145.488 190.389H61.292V196.33H145.488V190.389Z" fill="#EBEBEB"/>
<path d="M145.488 190.389H108.878V196.33H145.488V190.389Z" fill="#E0E0E0"/>
<path d="M73.7329 196.33H61.292V254.678H73.7329V196.33Z" fill="#EBEBEB"/>
<path d="M73.7329 202.351L61.292 198.115V196.33H73.7329V202.351Z" fill="#E0E0E0"/>
<path d="M145.488 196.33H133.047V254.678H145.488V196.33Z" fill="#E0E0E0"/>
<path d="M121.319 196.33H108.878V254.678H121.319V196.33Z" fill="#EBEBEB"/>
<path d="M121.312 202.351L108.878 198.115V196.33H121.312V202.351Z" fill="#E0E0E0"/>
<path d="M97.902 196.33H85.4611V254.678H97.902V196.33Z" fill="#E0E0E0"/>
<path d="M153.4 58.0552H47.286V148.411H153.4V58.0552Z" fill="#EBEBEB"/>
<path d="M153.4 148.405H154.585V58.0486H153.4V148.405Z" fill="#E0E0E0"/>
<path d="M149.41 144.409V62.0446L51.2887 62.0446V144.409H149.41Z" fill="#F5F5F5"/>
<path d="M99.1607 131.908C105.155 111.928 106.82 82.4575 119.567 86.5201C132.314 90.5827 115.618 134.159 115.618 134.159L99.1607 131.908Z" fill="white"/>
<path d="M109.457 132.9C103.357 103.943 104.895 65.5011 85.9406 66.3802C66.9863 67.2593 85.9406 134.159 85.9406 134.159L109.457 132.9Z" fill="white"/>
<path d="M122.85 129.65H81.3519C80.5051 129.623 79.6815 129.93 79.0586 130.504C78.4357 131.078 78.0634 131.874 78.0219 132.72C77.1761 151.835 80.3063 171.348 86.1338 190.389H117.909C123.736 171.315 126.866 151.835 126.021 132.72C125.988 131.899 125.641 131.122 125.05 130.551C124.46 129.979 123.672 129.656 122.85 129.65Z" fill="#EBEBEB"/>
<path d="M217.249 68.1318H214.912V254.678H217.249V68.1318Z" fill="#E0E0E0"/>
<path d="M272.188 68.1318H269.85V254.678H272.188V68.1318Z" fill="#E0E0E0"/>
<path d="M200.672 68.1318H198.335V254.678H200.672V68.1318Z" fill="#EBEBEB"/>
<path d="M255.611 68.1318H253.273V254.678H255.611V68.1318Z" fill="#EBEBEB"/>
<path d="M272.188 66.8531H198.335V69.4039H272.188V66.8531Z" fill="#EBEBEB"/>
<path d="M272.188 112.534H198.335V115.085H272.188V112.534Z" fill="#EBEBEB"/>
<path d="M272.188 158.215H198.335V160.766H272.188V158.215Z" fill="#EBEBEB"/>
<path d="M272.188 203.896H198.335V206.447H272.188V203.896Z" fill="#EBEBEB"/>
<path d="M272.188 249.577H198.335V252.128H272.188V249.577Z" fill="#EBEBEB"/>
<path d="M272.188 66.8531H255.611V69.4039H272.188V66.8531Z" fill="#E0E0E0"/>
<path d="M272.188 112.534H255.611V115.085H272.188V112.534Z" fill="#E0E0E0"/>
<path d="M272.188 158.215H255.611V160.766H272.188V158.215Z" fill="#E0E0E0"/>
<path d="M272.188 203.896H255.611V206.447H272.188V203.896Z" fill="#E0E0E0"/>
<path d="M272.188 249.577H255.611V252.128H272.188V249.577Z" fill="#E0E0E0"/>
<path d="M228.125 82.3909V78.7945H219.247V82.3909C219.247 83.5184 218.8 84.5999 218.003 85.3978C217.206 86.1957 216.126 86.6448 214.998 86.6466C213.871 86.6466 212.789 87.0941 211.991 87.8907C211.193 88.6874 210.744 89.7681 210.742 90.8957V112.554H236.636V90.8957C236.635 89.7681 236.186 88.6874 235.388 87.8907C234.59 87.0941 233.508 86.6466 232.381 86.6466C231.252 86.6466 230.17 86.1982 229.371 85.4001C228.573 84.602 228.125 83.5196 228.125 82.3909Z" fill="#F0F0F0"/>
<path d="M246.5 143.363H207.592V158.222H246.5V143.363Z" fill="#F0F0F0"/>
<path d="M246.5 158.215H253.273V143.356H246.5V158.215Z" fill="#E6E6E6"/>
<path d="M246.5 151.608H253.273V149.97H246.5V151.608Z" fill="#EBEBEB"/>
<path d="M246.5 149.97H207.592V151.608H246.5V149.97Z" fill="#F5F5F5"/>
<path d="M236.077 223.31H205.687V249.577H236.077V223.31Z" fill="#F0F0F0"/>
<path d="M236.077 249.583H241.365V223.316H236.077V249.583Z" fill="#E6E6E6"/>
<path d="M236.077 237.895H241.365V234.998H236.077V237.895Z" fill="#EBEBEB"/>
<path d="M236.077 234.998H205.687V237.895H236.077V234.998Z" fill="#F5F5F5"/>
<path d="M236.077 232.967H241.365V231.935H236.077V232.967Z" fill="#EBEBEB"/>
<path d="M236.077 231.935H205.687V232.967H236.077V231.935Z" fill="#F5F5F5"/>
<path d="M213.093 177.189H207.592V203.896H213.093V177.189Z" fill="#F0F0F0"/>
<path d="M213.093 186.706H207.592V194.379H213.093V186.706Z" fill="#FAFAFA"/>
<path d="M213.093 203.903H231.808V177.196H213.093V203.903Z" fill="#E6E6E6"/>
<path d="M221.592 173.739H215.378V203.896H221.592V173.739Z" fill="#EBEBEB"/>
<path d="M221.592 183.323H215.378V187.965H221.592V183.323Z" fill="#FAFAFA"/>
<path d="M221.592 191.075H215.378V195.717H221.592V191.075Z" fill="#FAFAFA"/>
<path d="M221.598 203.896H242.73V173.739H221.598V203.896Z" fill="#E0E0E0"/>
<path d="M228.511 177.189H225.161V203.896H228.511V177.189Z" fill="#F0F0F0"/>
<path d="M227.932 180.573H225.734V200.513H227.932V180.573Z" fill="#FAFAFA"/>
<path d="M228.505 203.903H239.887V177.196H228.505V203.903Z" fill="#E6E6E6"/>
<path d="M237.456 175.784H233.673V203.896H237.456V175.784Z" fill="#EBEBEB"/>
<path d="M237.456 184.715H233.673V189.044H237.456V184.715Z" fill="#FAFAFA"/>
<path d="M237.456 191.948H233.673V196.277H237.456V191.948Z" fill="#FAFAFA"/>
<path d="M237.456 203.896H250.309V175.784H237.456V203.896Z" fill="#E0E0E0"/>
<path d="M235.735 140.937C238.971 137.701 238.971 132.455 235.735 129.22C232.5 125.984 227.254 125.984 224.018 129.22C220.783 132.455 220.783 137.701 224.018 140.937C227.254 144.172 232.5 144.172 235.735 140.937Z" fill="#F5F5F5"/>
<path d="M239.967 143.27C243.097 142.762 245.222 139.814 244.714 136.684C244.206 133.554 241.257 131.429 238.128 131.937C234.998 132.445 232.873 135.394 233.381 138.524C233.889 141.653 236.838 143.778 239.967 143.27Z" fill="#EBEBEB"/>
<path d="M166.5 284.755C237.817 284.755 295.631 281.38 295.631 277.216C295.631 273.052 237.817 269.677 166.5 269.677C95.1831 269.677 37.3693 273.052 37.3693 277.216C37.3693 281.38 95.1831 284.755 166.5 284.755Z" fill="#F5F5F5"/>
<path d="M83.9893 225.568H169.53V269.73C169.53 270.296 169.419 270.856 169.202 271.379C168.986 271.902 168.668 272.377 168.268 272.777C167.868 273.177 167.393 273.494 166.87 273.711C166.347 273.928 165.787 274.039 165.221 274.039H88.2983C87.7324 274.039 87.1721 273.928 86.6493 273.711C86.1265 273.494 85.6515 273.177 85.2513 272.777C84.8512 272.377 84.5338 271.902 84.3173 271.379C84.1007 270.856 83.9893 270.296 83.9893 269.73V225.568Z" fill="#407BFF"/>
<path d="M83.9893 225.568H144.522L137.076 216.037C136.257 214.991 134.232 214.146 132.547 214.146H78.1085C76.4302 214.146 75.7242 214.991 76.5434 216.037L83.9893 225.568Z" fill="#407BFF"/>
<path opacity="0.2" d="M83.9893 225.568H144.522L137.076 216.037C136.257 214.991 134.232 214.146 132.547 214.146H78.1085C76.4302 214.146 75.7242 214.991 76.5434 216.037L83.9893 225.568Z" fill="black"/>
<path d="M169.53 225.568H109.004L116.45 219.354C117.269 218.688 119.294 218.122 120.979 218.122H175.411C177.096 218.122 177.795 218.674 176.976 219.354L169.53 225.568Z" fill="#407BFF"/>
<path opacity="0.2" d="M109.004 225.568H169.53V269.73C169.53 270.296 169.419 270.856 169.202 271.379C168.986 271.902 168.668 272.377 168.268 272.777C167.868 273.177 167.393 273.494 166.87 273.711C166.347 273.928 165.787 274.039 165.221 274.039H113.313C112.747 274.039 112.187 273.928 111.664 273.711C111.141 273.494 110.666 273.177 110.266 272.777C109.866 272.377 109.549 271.902 109.332 271.379C109.116 270.856 109.004 270.296 109.004 269.73V225.568Z" fill="white"/>
<path opacity="0.5" d="M91.5017 225.568V255.857L93.593 254.206L95.0648 255.857L96.3436 254.019L97.6556 255.857L99.4804 254.479L101.492 255.857V225.568H91.5017Z" fill="white"/>
<path d="M105.042 159.494L94.2856 150.463" stroke="#407BFF" stroke-miterlimit="10"/>
<path d="M110.616 164.176L107.339 161.418" stroke="#407BFF" stroke-miterlimit="10"/>
<path d="M142.837 183.077L178.321 138.728L131.075 99.0609L99.7734 134.978L95.1114 143.963C94.88 144.218 94.7036 144.518 94.5934 144.844C94.4832 145.17 94.4415 145.516 94.4709 145.859C94.5002 146.202 94.6001 146.536 94.7642 146.838C94.9282 147.141 95.153 147.407 95.4245 147.619L138.048 183.41C138.742 183.968 139.62 184.244 140.508 184.182C141.396 184.121 142.228 183.726 142.837 183.077Z" fill="#407BFF"/>
<path opacity="0.5" d="M118.501 150.369L113.393 158.595L115.451 159.041L116.15 160.946L117.516 161.025L118.148 162.657L119.82 163.143L121.105 165.188L126.214 156.963L118.501 150.369Z" fill="white"/>
<path opacity="0.1" d="M176.776 137.429L144.955 172.927L99.7535 134.978L131.075 99.0609L176.776 137.429Z" fill="black"/>
<path d="M176.776 137.429L144.955 172.927L158.128 173.899L189.457 137.982L176.776 137.429Z" fill="#407BFF"/>
<path opacity="0.3" d="M176.776 137.429L144.955 172.927L158.128 173.899L189.457 137.982L176.776 137.429Z" fill="black"/>
<path d="M118.401 98.5014L86.5733 134.006L99.7535 134.978L131.075 99.0609L118.401 98.5014Z" fill="#407BFF"/>
<path opacity="0.4" d="M118.401 98.5014L86.5733 134.006L99.7535 134.978L131.075 99.0609L118.401 98.5014Z" fill="black"/>
<path opacity="0.1" d="M166.98 148.358L176.776 137.429L131.075 99.0609L125.228 113.153L166.98 148.358Z" fill="black"/>
<path opacity="0.2" d="M99.7535 134.978L131.075 99.0609L125.228 113.153L103.17 137.849L99.7535 134.978Z" fill="black"/>
<path d="M187.812 70.596C187.939 71.0222 187.812 71.4418 187.532 71.5217C187.253 71.6017 186.926 71.3219 186.8 70.8957C186.673 70.4695 186.8 70.0499 187.079 69.9633C187.359 69.8767 187.692 70.1698 187.812 70.596Z" fill="#263238"/>
<path d="M187.859 71.4352C187.733 72.9006 187.406 74.3416 186.886 75.7175C187.242 75.8411 187.621 75.8854 187.996 75.8474C188.371 75.8095 188.733 75.6901 189.057 75.4978L187.859 71.4352Z" fill="#ED847E"/>
<path d="M188.698 67.7522C188.754 67.7197 188.797 67.6675 188.818 67.6057C188.83 67.5734 188.836 67.5389 188.835 67.5043C188.833 67.4697 188.825 67.4357 188.81 67.4045C188.795 67.3733 188.774 67.3455 188.748 67.3228C188.721 67.3001 188.691 67.2831 188.658 67.2727C188.268 67.1231 187.847 67.0698 187.432 67.1173C187.017 67.1649 186.62 67.3118 186.274 67.5457C186.228 67.5914 186.201 67.6518 186.197 67.7158C186.193 67.7798 186.212 67.8432 186.251 67.8942C186.29 67.9452 186.346 67.9805 186.409 67.9936C186.472 68.0067 186.537 67.9966 186.593 67.9653C186.87 67.7838 187.186 67.671 187.515 67.6363C187.844 67.6015 188.176 67.6458 188.485 67.7655C188.519 67.7781 188.556 67.7834 188.593 67.7811C188.629 67.7788 188.665 67.769 188.698 67.7522Z" fill="#263238"/>
<path d="M202.624 73.4465C202.917 76.9763 203.789 83.4365 205.874 84.9283C205.874 84.9283 205.381 89.1707 197.882 90.2563C189.663 91.4684 193.353 86.7532 193.353 86.7532C197.675 85.0216 197.069 81.7115 195.831 78.7012L199.001 75.0649C200.22 73.7195 202.464 71.6416 202.624 73.4465Z" fill="#FFC3BD"/>
<path d="M208.558 86.6533C209.224 86.0472 207.892 83.623 207.073 83.2833C204.928 82.3842 196.157 83.2833 192.86 86.1138C192.587 86.5821 192.422 87.1057 192.377 87.6462C192.332 88.1866 192.408 88.7303 192.601 89.2373L208.558 86.6533Z" fill="white"/>
<path d="M236.49 264.675C236.273 264.774 236.039 264.828 235.801 264.835C235.563 264.842 235.327 264.801 235.105 264.715C235.017 264.646 234.953 264.551 234.92 264.444C234.888 264.336 234.89 264.222 234.925 264.116C234.942 264.029 234.979 263.946 235.032 263.875C235.085 263.804 235.153 263.745 235.231 263.703C235.95 263.283 237.729 263.836 237.802 263.863C237.826 263.869 237.848 263.883 237.865 263.902C237.881 263.921 237.892 263.944 237.895 263.969C237.899 263.995 237.894 264.022 237.882 264.046C237.87 264.07 237.852 264.089 237.829 264.102C237.403 264.338 236.954 264.53 236.49 264.675ZM235.518 263.863L235.364 263.929C235.319 263.954 235.279 263.988 235.248 264.029C235.217 264.071 235.196 264.118 235.185 264.169C235.138 264.409 235.231 264.482 235.258 264.502C235.578 264.728 236.663 264.402 237.416 264.022C236.802 263.83 236.154 263.775 235.518 263.863Z" fill="#407BFF"/>
<path d="M237.802 264.109C237.78 264.116 237.757 264.116 237.735 264.109C237.069 263.976 235.677 263.143 235.604 262.517C235.594 262.419 235.618 262.32 235.673 262.237C235.727 262.154 235.809 262.093 235.904 262.064C235.996 262.023 236.096 262.002 236.197 262.002C236.298 262.002 236.398 262.023 236.49 262.064C237.262 262.384 237.862 263.876 237.882 263.936C237.895 263.956 237.902 263.979 237.902 264.002C237.902 264.026 237.895 264.049 237.882 264.069C237.873 264.081 237.86 264.091 237.847 264.098C237.833 264.105 237.817 264.109 237.802 264.109ZM236.07 262.291C236.051 262.285 236.03 262.285 236.01 262.291C235.857 262.357 235.864 262.437 235.871 262.471C235.91 262.844 236.856 263.516 237.529 263.763C237.329 263.33 236.863 262.491 236.39 262.291C236.287 262.251 236.173 262.251 236.07 262.291Z" fill="#407BFF"/>
<path d="M197.456 271.828C196.743 271.828 196.057 271.728 195.824 271.408C195.764 271.325 195.732 271.225 195.732 271.122C195.732 271.019 195.764 270.919 195.824 270.836C195.868 270.758 195.928 270.691 195.999 270.637C196.07 270.583 196.151 270.544 196.237 270.523C197.163 270.276 199.107 271.382 199.187 271.428C199.212 271.44 199.232 271.46 199.245 271.484C199.257 271.508 199.262 271.536 199.257 271.563C199.253 271.59 199.24 271.615 199.22 271.634C199.2 271.653 199.175 271.665 199.147 271.668C198.589 271.772 198.023 271.826 197.456 271.828ZM196.577 270.749C196.491 270.746 196.405 270.757 196.323 270.782C196.217 270.806 196.124 270.871 196.064 270.962C195.971 271.129 196.004 271.209 196.064 271.255C196.323 271.615 197.729 271.621 198.728 271.475C198.064 271.096 197.334 270.85 196.577 270.749Z" fill="#407BFF"/>
<path d="M199.134 271.675H199.081C198.415 271.375 197.083 270.17 197.183 269.544C197.183 269.397 197.316 269.211 197.675 269.177C197.806 269.163 197.937 269.175 198.062 269.214C198.187 269.253 198.303 269.318 198.401 269.404C199.114 269.983 199.261 271.482 199.267 271.542C199.271 271.565 199.268 271.588 199.258 271.609C199.249 271.631 199.233 271.649 199.214 271.661C199.189 271.674 199.161 271.679 199.134 271.675ZM197.802 269.424H197.722C197.482 269.424 197.469 269.544 197.462 269.57C197.402 269.95 198.308 270.902 198.987 271.308C198.929 270.673 198.673 270.072 198.255 269.59C198.13 269.48 197.968 269.421 197.802 269.424Z" fill="#407BFF"/>
<path d="M205.248 271.542H199.687L199.134 258.674H204.695L205.248 271.542Z" fill="#FFC3BD"/>
<path d="M244.309 262.757L239.187 264.522L233.873 252.394L238.994 250.629L244.309 262.757Z" fill="#FFC3BD"/>
<path d="M237.968 263.25L243.962 261.418C244.068 261.386 244.182 261.391 244.285 261.432C244.388 261.473 244.474 261.548 244.529 261.645L247.026 266.04C247.086 266.148 247.121 266.268 247.128 266.39C247.136 266.513 247.115 266.636 247.069 266.75C247.022 266.864 246.95 266.966 246.859 267.048C246.767 267.131 246.658 267.191 246.54 267.226C244.442 267.832 243.396 268.018 240.772 268.824C239.154 269.317 235.078 270.862 232.78 271.322C230.483 271.781 229.743 269.583 230.636 269.191C234.632 267.426 236.27 265.421 237.223 263.863C237.389 263.575 237.654 263.357 237.968 263.25Z" fill="#263238"/>
<path d="M199.727 270.896H205.794C205.904 270.897 206.01 270.935 206.096 271.004C206.181 271.073 206.242 271.168 206.267 271.275L207.366 276.217C207.393 276.336 207.393 276.46 207.365 276.579C207.338 276.698 207.283 276.809 207.206 276.904C207.129 276.999 207.032 277.075 206.921 277.127C206.81 277.179 206.689 277.205 206.567 277.203C204.375 277.169 201.239 277.036 198.461 277.036C195.245 277.036 193.893 277.216 190.116 277.216C187.839 277.216 187.206 274.911 188.158 274.698C192.507 273.746 194.632 273.646 198.388 271.328C198.786 271.065 199.249 270.915 199.727 270.896Z" fill="#263238"/>
<path d="M215.877 88.4714C217.496 89.9566 218.894 91.4418 220.346 92.9936C221.798 94.5454 223.143 96.1504 224.449 97.862C225.812 99.6009 227.049 101.435 228.152 103.35C228.754 104.405 229.275 105.505 229.71 106.64C229.823 106.953 229.937 107.253 230.03 107.592C230.139 107.936 230.23 108.285 230.303 108.638L230.416 109.191L230.496 109.803C230.57 110.365 230.57 110.934 230.496 111.495C230.343 112.555 229.951 113.566 229.35 114.452C228.912 115.099 228.398 115.692 227.819 116.217C226.888 117.062 225.87 117.805 224.782 118.435C222.865 119.531 220.86 120.465 218.788 121.225C214.856 122.685 210.805 123.799 206.68 124.555L205.514 120.559C209.131 118.994 212.794 117.303 216.17 115.498C217.814 114.635 219.396 113.661 220.906 112.581C221.534 112.134 222.113 111.62 222.63 111.049C222.788 110.88 222.92 110.689 223.023 110.483C223.077 110.37 223.023 110.383 222.957 110.623C222.91 111.069 222.917 110.722 222.81 110.483C222.777 110.37 222.717 110.216 222.657 110.07C222.597 109.923 222.524 109.757 222.451 109.597C222.09 108.871 221.687 108.166 221.245 107.486C220.217 105.959 219.105 104.489 217.915 103.083C216.69 101.632 215.398 100.186 214.072 98.7678C212.747 97.3492 211.355 95.9173 210.076 94.5986L215.877 88.4714Z" fill="#FFC3BD"/>
<path d="M207.039 119.927L201.798 121.512L205.168 127.053C205.168 127.053 208.265 125.774 208.951 123.143L207.039 119.927Z" fill="#FFC3BD"/>
<path d="M199.68 123.476L201.745 128.045L205.135 127.059L201.765 121.512L199.68 123.476Z" fill="#FFC3BD"/>
<path d="M203.596 89.9766C203.097 95.3046 214.365 103.55 214.365 103.55L225.215 96.1238C223.331 92.6492 220.577 89.7233 217.223 87.6323C211.002 83.6496 204.222 83.3566 203.596 89.9766Z" fill="#407BFF"/>
<g opacity="0.3">
<path d="M203.596 89.9766C203.097 95.3046 214.365 103.55 214.365 103.55L225.215 96.1238C223.331 92.6492 220.577 89.7233 217.223 87.6323C211.002 83.6496 204.222 83.3566 203.596 89.9766Z" fill="white"/>
</g>
<path d="M185.148 89.5504C185.148 89.5504 180.28 97.0229 191.841 137.103L221.239 132.76C220.826 128.698 215.911 110.976 215.744 91.6016C215.737 90.666 215.541 89.7415 215.167 88.8839C214.793 88.0262 214.249 87.2532 213.568 86.6115C212.887 85.9698 212.083 85.4728 211.205 85.1503C210.327 84.8278 209.392 84.6866 208.458 84.7352C207.606 84.7818 206.726 84.8417 205.854 84.9283C201.657 85.3025 197.486 85.9185 193.36 86.7731C190.555 87.4867 187.81 88.4152 185.148 89.5504Z" fill="#407BFF"/>
<g opacity="0.3">
<path d="M185.148 89.5504C185.148 89.5504 180.28 97.0229 191.841 137.103L221.239 132.76C220.826 128.698 215.911 110.976 215.744 91.6016C215.737 90.666 215.541 89.7415 215.167 88.8839C214.793 88.0262 214.249 87.2532 213.568 86.6115C212.887 85.9698 212.083 85.4728 211.205 85.1503C210.327 84.8278 209.392 84.6866 208.458 84.7352C207.606 84.7818 206.726 84.8417 205.854 84.9283C201.657 85.3025 197.486 85.9185 193.36 86.7731C190.555 87.4867 187.81 88.4152 185.148 89.5504Z" fill="white"/>
</g>
<path opacity="0.2" d="M184.429 102.431L184.529 102.318L191.442 102.93C192.494 107.393 188.644 113.48 186.613 116.304C185.635 111.722 184.906 107.091 184.429 102.431Z" fill="black"/>
<path opacity="0.2" d="M199.134 258.681L199.42 265.314H204.981L204.695 258.681H199.134Z" fill="black"/>
<path opacity="0.2" d="M238.994 250.629L233.873 252.394L236.616 258.648L241.738 256.883L238.994 250.629Z" fill="black"/>
<path d="M201.898 65.4811C203.123 70.8557 204.109 73.9393 202.238 77.4691C199.427 82.7239 192.194 82.2177 189.39 77.3159C186.866 72.9004 185.281 64.8551 189.837 61.232C190.835 60.4305 192.021 59.8969 193.283 59.6817C194.545 59.4664 195.841 59.5768 197.049 60.0022C198.257 60.4276 199.336 61.154 200.184 62.1127C201.033 63.0715 201.622 64.2308 201.898 65.4811Z" fill="#FFC3BD"/>
<path d="M191.102 70.7492L189.057 72.0013L189.251 65.0083C187.932 65.0649 186.632 64.6883 185.548 63.936C186.287 63.2301 197.795 59.2008 201.385 59.9001C201.758 59.7469 202.211 59.0542 202.211 59.0542C202.211 59.0542 202.351 59.9267 201.745 60.2597C202.184 60.1731 203.283 60.3862 203.59 61.0323C203.085 60.8945 202.55 60.9249 202.064 61.1188C202.064 61.1188 206.06 61.7249 204.642 67.266C203.05 73.3732 203.576 76.8831 203.576 76.8831C203.576 76.8831 200.606 79.1808 198.022 78.7545C195.265 75.7176 191.282 72.0679 191.102 70.7492Z" fill="#263238"/>
<path d="M187.186 63.3832C183.943 63.3832 182.777 61.7981 181.945 60.4661C184.276 60.2197 189.131 58.7212 192.734 58.4681C196.337 58.2151 200.286 58.8877 199.094 60.4661C197.902 62.0446 187.186 63.3832 187.186 63.3832Z" fill="#263238"/>
<path d="M187.899 61.938C185.235 61.565 182.637 59.0542 184.635 56.65C185.374 58.4149 190.363 58.2084 193.906 57.4691C198.568 56.4968 201.798 58.0685 200.146 61.2454C199.241 62.9836 187.899 61.938 187.899 61.938Z" fill="#263238"/>
<path d="M193.979 69.1574C194.36 70.4725 194.3 71.8763 193.806 73.1534C193.14 74.8251 191.661 74.4854 190.889 73.0402C190.223 71.7082 189.717 69.2907 190.849 68.0852C191.981 66.8797 193.5 67.579 193.979 69.1574Z" fill="#FFC3BD"/>
<path d="M202.271 135.564C202.271 135.564 207.039 176.157 210.503 192.061C214.292 209.484 232.987 256.983 232.987 256.983L242.311 253.759C242.311 253.759 230.323 217.995 227.139 193.64C224.695 174.938 221.212 132.76 221.212 132.76L202.271 135.564Z" fill="#263238"/>
<path d="M230.603 253.999C230.556 253.999 232.514 257.995 232.514 257.995L243.403 254.459L242.124 251.209L230.603 253.999Z" fill="#407BFF"/>
<path opacity="0.3" d="M204.902 156.39C206.393 167.672 208.305 181.032 209.983 189.564C212.454 176.49 213.033 159.98 204.902 156.39Z" fill="black"/>
<path d="M191.841 137.103C191.841 137.103 187.885 175.238 188.511 192.181C189.137 209.803 197.369 264.029 197.369 264.029H206.78C206.78 264.029 205.048 210.829 205.448 193.526C205.907 174.658 212.98 133.979 212.98 133.979L191.841 137.103Z" fill="#263238"/>
<path d="M195.538 260.279C195.498 260.279 196.07 264.182 196.07 264.182H207.519L207.832 260.699L195.538 260.279Z" fill="#407BFF"/>
<path d="M190.016 98.9143C188.977 100.566 187.925 102.051 186.833 103.576C185.741 105.101 184.595 106.573 183.43 108.039C181.054 111.011 178.479 113.819 175.724 116.443C174.978 117.109 174.292 117.775 173.486 118.381L172.9 118.854L172.607 119.087C172.501 119.174 172.454 119.221 172.234 119.38C171.574 119.851 170.85 120.224 170.083 120.486C168.896 120.892 167.654 121.116 166.4 121.152C165.339 121.188 164.277 121.141 163.223 121.012C159.371 120.507 155.613 119.444 152.068 117.855L153.22 113.859C156.627 114.264 160.059 114.428 163.49 114.352C164.248 114.312 165.004 114.23 165.754 114.106C166.319 114.023 166.867 113.852 167.379 113.6C167.539 113.513 167.626 113.426 167.606 113.406C167.586 113.386 167.692 113.32 167.752 113.26L167.979 113.053L168.425 112.634C169.024 112.101 169.59 111.455 170.176 110.869C171.329 109.63 172.474 108.358 173.56 107.006C174.645 105.654 175.744 104.296 176.81 102.897C177.875 101.498 178.908 100.08 179.947 98.6612C180.986 97.2427 181.998 95.7508 182.957 94.3722L190.016 98.9143Z" fill="#FFC3BD"/>
<path d="M193.886 97.1494C196.124 104.475 183.13 112.594 183.13 112.594L174.685 101.838C176.589 98.2915 178.939 95.0036 181.678 92.0545C187.426 85.8008 192.181 91.575 193.886 97.1494Z" fill="#407BFF"/>
<g opacity="0.3">
<path d="M193.886 97.1494C196.124 104.475 183.13 112.594 183.13 112.594L174.685 101.838C176.589 98.2915 178.939 95.0036 181.678 92.0545C187.426 85.8008 192.181 91.575 193.886 97.1494Z" fill="white"/>
</g>
<path d="M155.178 114.106L148.338 112.854L149.057 118.768C149.057 118.768 152.614 120.766 155.191 117.642L155.178 114.106Z" fill="#FFC3BD"/>
<path d="M145.701 114.186L147.179 118.455L149.044 118.768L148.325 112.854L145.701 114.186Z" fill="#FFC3BD"/>
</svg>
